<svg xmlns="http://www.w3.org/2000/svg" xmlns:xlink="http://www.w3.org/1999/xlink" width="500" zoomAndPan="magnify" viewBox="0 0 375 374.999991" height="500" preserveAspectRatio="xMidYMid meet" version="1.0"><defs><clipPath id="27d053cb67"><path d="M 52 36 L 335.203125 36 L 335.203125 359.890625 L 52 359.890625 Z M 52 36 " clip-rule="nonzero"/></clipPath><clipPath id="c4488983a1"><path d="M 0.320312 0.71875 L 283.203125 0.71875 L 283.203125 323.890625 L 0.320312 323.890625 Z M 0.320312 0.71875 " clip-rule="nonzero"/></clipPath><clipPath id="e3f1724bc7"><rect x="0" width="284" y="0" height="324"/></clipPath></defs><g clip-path="url(#27d053cb67)"><g transform="matrix(1, 0, 0, 1, 52, 36)"><g clip-path="url(#e3f1724bc7)"><path fill="#ffffff" d="M 213.773438 23.363281 C 212.375 27.238281 211.566406 31.320312 211.363281 35.597656 C 211.03125 42.496094 212.425781 48.007812 213.132812 50.308594 C 216.339844 52.828125 219.3125 55.304688 222.050781 57.746094 C 223.222656 48.695312 228.0625 33.585938 246.613281 24.683594 C 246.613281 24.683594 234.550781 21.128906 213.773438 23.363281 " fill-opacity="1" fill-rule="nonzero"/><g clip-path="url(#c4488983a1)"><path fill="#ffffff" d="M 7.5625 74.421875 C 41.230469 -21.117188 157.472656 24.984375 157.472656 24.984375 C 195.722656 0.488281 223.792969 0.859375 223.792969 0.859375 C 197.289062 24.144531 208.957031 53.28125 208.957031 53.28125 C 261.230469 93.761719 233.453125 109.347656 233.453125 109.347656 C 233.453125 109.347656 241.636719 100.15625 207.054688 84.855469 C 207.054688 84.855469 209.457031 91.519531 214.601562 99.105469 C 220.992188 108.539062 229.625 110.152344 235.578125 112.722656 C 240.855469 120.703125 256.132812 141.621094 283.238281 162.046875 C 283.238281 162.046875 254.578125 179.097656 236.210938 166.664062 C 139.609375 101.273438 121.496094 141.546875 164.347656 169.535156 C 243.546875 221.265625 213.390625 324.09375 213.390625 324.09375 C 196.300781 223.777344 98.710938 204.957031 98.710938 204.957031 C 89.792969 222.789062 103.414062 251.273438 103.414062 251.273438 C 71.464844 226.75 58.089844 180.683594 58.089844 180.683594 C 47.6875 196.289062 53.136719 231.210938 53.136719 231.210938 C 12.019531 169.785156 30.597656 106.375 30.597656 106.375 C 9.542969 140.558594 15.738281 165.820312 15.738281 165.820312 C 15.738281 165.820312 -12.253906 130.648438 7.5625 74.421875 " fill-opacity="1" fill-rule="nonzero"/></g></g></g></g></svg>